<svg xmlns="http://www.w3.org/2000/svg" viewBox="0 0 192 192" width="192" height="192"><defs><linearGradient id="6759740509898153336" x1="4.292248535658935" x2="-11.50310281758251" y1="8.620512073735775" y2="-18.86677195379115" gradientTransform="matrix(0.041666667,0,0,0.041666669,0.666666667,0.666666652)"><stop stop-color="#182233" /><stop offset="0.998442" stop-color="#41e4ff" /></linearGradient></defs><g transform="matrix(8,0,0,8,0,0)">
<g>
	<g transform="matrix(1,0,0,1,16,16)">
		<path d="M-11.200303,-15.999999C-11.200303,-15.999999 3.200302,-15.999999 3.200302,-15.999999 C5.851102,-15.999999 8,-13.850966 8,-11.2 C8,-11.2 8,3.200001 8,3.200001 C8,5.850968 5.851102,8 3.200302,8 C3.200302,8 -11.200303,8 -11.200303,8 C-13.851102,8 -16,5.850968 -16,3.200001 C-16,3.200001 -16,-11.2 -16,-11.2 C-16,-13.850966 -13.851102,-15.999999 -11.200303,-15.999999 C-11.200303,-15.999999 -11.200303,-15.999999 -11.200303,-15.999999 Z" fill="url('#6759740509898153336')"/>
	</g>
	<g transform="matrix(1,0,0,1,16,16)">
		<g transform="matrix(1,0,0,1,-1,-4)">
			<g transform="matrix(1,0,0,1,1,-1)">
				<path d="M-9,4C-7.344646,4 -6,5.344646 -6,7 C-6,8.655354 -7.344646,10 -9,10 C-10.655354,10 -12,8.655354 -12,7 C-12,5.344646 -10.655354,4 -9,4 Z" fill="#f0fff8"/>
			</g>
			<g transform="matrix(1,0,0,1,1,-1)">
				<path d="M-12,8C-12,7 -12,7 -12,7 L -9,10 C-9,10 -12.613588,10 -13,10 C-14,10 -14,9 -13,9 C-13,9 -12,9 -12,8 Z" fill="#effff7"/>
			</g>
		</g>
		<g transform="matrix(1,0,0,1,-1,-4)">
			<path d="M-8,2L -8,-5 L -7,-5 C-7,-5 -3,0 -3,0 L 1,-5 C1,-5 2,-5 2,-5 C2,-5 2,7 2,7 " transform="matrix(1,0,0,1,0,0)" fill="none" stroke="#f0fff8" stroke-width="4" stroke-miterlimit="13.6"/>
		</g>
	</g>
</g></g></svg>